<svg xmlns="http://www.w3.org/2000/svg" viewBox="0 0 350 300"><path fill="#c1121c" d="M339 300s-16.815 0 0 0c14.904 0 7.223-16.17 7.223-16.17L185.096 8.094s3.478 6.122 0 0c-6.268-10.957-14.446-10.463-20.216-.493L3.794 283.831S-3.926 300 11 300c16.832 0 0 0 0 0z"/><path fill="#f7fbf5" d="M174.51 73.711 66.776 259.576h216.92z"/><path d="M175.007 215.796c6.305 0 11.465-5.252 11.465-11.673v-73.257c0-6.421-5.16-11.673-11.465-11.673-6.344 0-11.466 5.252-11.466 11.673v73.257c0 6.421 5.122 11.673 11.466 11.673zm0 32.068c6.343 0 11.541-5.096 11.541-11.373 0-6.305-5.198-11.402-11.541-11.402-6.382 0-11.542 5.097-11.542 11.402 0 6.277 5.16 11.373 11.542 11.373" style="fill:#2a2d2f;stroke:#2a2d2f;stroke-width:1.22561038"/></svg>